<?xml version="1.0" encoding="UTF-8"?>
<!DOCTYPE svg
PUBLIC "-//W3C//DTD SVG 1.1//EN"
       "http://www.w3.org/Graphics/SVG/1.1/DTD/svg11.dtd">
<svg viewBox="114 39 956 626" width="842px" height="587px" xmlns="http://www.w3.org/2000/svg" version="1.1">
   <line x1="623" y1="521" x2="633" y2="521" style="stroke:#c00;stroke-width:1;"/>
   <line x1="812" y1="452" x2="822" y2="452" style="stroke:#c00;stroke-width:1;"/>
   <line x1="633" y1="521" x2="812" y2="452" style="stroke:#c00;stroke-width:1;"/>
   <line x1="630.5" y1="521" x2="626.96446609407" y2="524.53553390593" style="stroke:#c00;stroke-width:2;"/>
   <line x1="630.5" y1="521" x2="626.96446609407" y2="517.46446609407" style="stroke:#c00;stroke-width:2;"/>
   <line x1="817" y1="452" x2="813.46446609407" y2="455.53553390593" style="stroke:#c00;stroke-width:2;"/>
   <line x1="817" y1="452" x2="813.46446609407" y2="448.46446609407" style="stroke:#c00;stroke-width:2;"/>
   <line x1="823" y1="157" x2="813" y2="157" style="stroke:#0bf;stroke-width:1;"/>
   <line x1="633" y1="84" x2="623" y2="84" style="stroke:#0bf;stroke-width:1;"/>
   <line x1="813" y1="157" x2="633" y2="84" style="stroke:#0bf;stroke-width:1;"/>
   <line x1="815.5" y1="157" x2="819.03553390593" y2="160.53553390593" style="stroke:#0bf;stroke-width:2;"/>
   <line x1="815.5" y1="157" x2="819.03553390593" y2="153.46446609407" style="stroke:#0bf;stroke-width:2;"/>
   <line x1="628" y1="84" x2="631.53553390593" y2="87.535533905933" style="stroke:#0bf;stroke-width:2;"/>
   <line x1="628" y1="84" x2="631.53553390593" y2="80.464466094067" style="stroke:#0bf;stroke-width:2;"/>
   <line x1="823" y1="137" x2="813" y2="137" style="stroke:#0b0;stroke-width:1;"/>
   <line x1="633" y1="461" x2="623" y2="461" style="stroke:#0b0;stroke-width:1;"/>
   <line x1="813" y1="137" x2="633" y2="461" style="stroke:#0b0;stroke-width:1;"/>
   <line x1="815.5" y1="137" x2="819.03553390593" y2="140.53553390593" style="stroke:#0b0;stroke-width:2;"/>
   <line x1="815.5" y1="137" x2="819.03553390593" y2="133.46446609407" style="stroke:#0b0;stroke-width:2;"/>
   <line x1="628" y1="461" x2="631.53553390593" y2="464.53553390593" style="stroke:#0b0;stroke-width:2;"/>
   <line x1="628" y1="461" x2="631.53553390593" y2="457.46446609407" style="stroke:#0b0;stroke-width:2;"/>
   <line x1="304" y1="274" x2="314" y2="274" style="stroke:#c00;stroke-width:1;"/>
   <line x1="475" y1="84" x2="485" y2="84" style="stroke:#c00;stroke-width:1;"/>
   <line x1="314" y1="274" x2="475" y2="84" style="stroke:#c00;stroke-width:1;"/>
   <line x1="311.5" y1="274" x2="307.96446609407" y2="277.53553390593" style="stroke:#c00;stroke-width:2;"/>
   <line x1="311.5" y1="274" x2="307.96446609407" y2="270.46446609407" style="stroke:#c00;stroke-width:2;"/>
   <line x1="480" y1="84" x2="476.46446609407" y2="87.535533905933" style="stroke:#c00;stroke-width:2;"/>
   <line x1="480" y1="84" x2="476.46446609407" y2="80.464466094067" style="stroke:#c00;stroke-width:2;"/>
   <line x1="304" y1="294" x2="314" y2="294" style="stroke:#0b0;stroke-width:1;"/>
   <line x1="480" y1="461" x2="490" y2="461" style="stroke:#0b0;stroke-width:1;"/>
   <line x1="314" y1="294" x2="480" y2="461" style="stroke:#0b0;stroke-width:1;"/>
   <line x1="311.5" y1="294" x2="307.96446609407" y2="297.53553390593" style="stroke:#0b0;stroke-width:2;"/>
   <line x1="311.5" y1="294" x2="307.96446609407" y2="290.46446609407" style="stroke:#0b0;stroke-width:2;"/>
   <line x1="485" y1="461" x2="481.46446609407" y2="464.53553390593" style="stroke:#0b0;stroke-width:2;"/>
   <line x1="485" y1="461" x2="481.46446609407" y2="457.46446609407" style="stroke:#0b0;stroke-width:2;"/>
   <rect width="133" height="20" x="490" y="431" style="fill:#007;stroke:black;"/>
   <text width="133" height="20" x="495" y="445" style="fill:#fff;" font-family="Arial" font-size="16px"> evento</text>
   <rect width="133" height="20" x="490" y="451" style="fill:#aea;stroke:black;"/>
   <text width="133" height="20" x="495" y="465" style="fill:black;" font-family="Arial" font-size="16px">num_evento</text>
   <rect width="133" height="20" x="490" y="471" style="fill:none;stroke:black;"/>
   <text width="133" height="20" x="495" y="485" style="fill:black;" font-family="Arial" font-size="16px">nome_evento</text>
   <rect width="133" height="20" x="490" y="491" style="fill:none;stroke:black;"/>
   <text width="133" height="20" x="495" y="505" style="fill:black;" font-family="Arial" font-size="16px">data_evento</text>
   <rect width="133" height="20" x="490" y="511" style="fill:none;stroke:black;"/>
   <text width="133" height="20" x="495" y="525" style="fill:black;" font-family="Arial" font-size="16px">vino_evento</text>
   <rect width="133" height="20" x="490" y="531" style="fill:none;stroke:black;"/>
   <text width="133" height="20" x="495" y="545" style="fill:black;" font-family="Arial" font-size="16px">costo</text>
   <rect width="133" height="20" x="490" y="551" style="fill:none;stroke:black;"/>
   <text width="133" height="20" x="495" y="565" style="fill:black;" font-family="Arial" font-size="16px">posti_disponibili</text>
   <rect width="133" height="20" x="490" y="571" style="fill:none;stroke:black;"/>
   <text width="133" height="20" x="495" y="585" style="fill:black;" font-family="Arial" font-size="16px">note</text>
   <rect width="133" height="20" x="490" y="591" style="fill:none;stroke:black;"/>
   <text width="133" height="20" x="495" y="605" style="fill:black;" font-family="Arial" font-size="16px">immagine_evento</text>
   <rect width="116" height="20" x="823" y="107" style="fill:#007;stroke:black;"/>
   <text width="116" height="20" x="828" y="121" style="fill:#fff;" font-family="Arial" font-size="16px"> oste</text>
   <rect width="116" height="20" x="823" y="127" style="fill:#aea;stroke:black;"/>
   <text width="116" height="20" x="828" y="141" style="fill:black;" font-family="Arial" font-size="16px">num_evento</text>
   <rect width="116" height="20" x="823" y="147" style="fill:none;stroke:black;"/>
   <text width="116" height="20" x="828" y="161" style="fill:black;" font-family="Arial" font-size="16px">username_oste</text>
   <rect width="116" height="20" x="823" y="167" style="fill:none;stroke:black;"/>
   <text width="116" height="20" x="828" y="181" style="fill:black;" font-family="Arial" font-size="16px">voto_totale</text>
   <rect width="116" height="20" x="823" y="187" style="fill:none;stroke:black;"/>
   <text width="116" height="20" x="828" y="201" style="fill:black;" font-family="Arial" font-size="16px">num_voti</text>
   <rect width="116" height="20" x="823" y="207" style="fill:none;stroke:black;"/>
   <text width="116" height="20" x="828" y="221" style="fill:black;" font-family="Arial" font-size="16px">commento</text>
   <rect width="175" height="20" x="129" y="244" style="fill:#007;stroke:black;"/>
   <text width="175" height="20" x="134" y="258" style="fill:#fff;" font-family="Arial" font-size="16px"> partecipante</text>
   <rect width="175" height="20" x="129" y="264" style="fill:none;stroke:black;"/>
   <text width="175" height="20" x="134" y="278" style="fill:black;" font-family="Arial" font-size="16px">username_partecipante</text>
   <rect width="175" height="20" x="129" y="284" style="fill:#aea;stroke:black;"/>
   <text width="175" height="20" x="134" y="298" style="fill:black;" font-family="Arial" font-size="16px">num_evento</text>
   <rect width="175" height="20" x="129" y="304" style="fill:none;stroke:black;"/>
   <text width="175" height="20" x="134" y="318" style="fill:black;" font-family="Arial" font-size="16px">feedback_oste</text>
   <rect width="175" height="20" x="129" y="324" style="fill:none;stroke:black;"/>
   <text width="175" height="20" x="134" y="338" style="fill:black;" font-family="Arial" font-size="16px">commento_oste</text>
   <rect width="175" height="20" x="129" y="344" style="fill:none;stroke:black;"/>
   <text width="175" height="20" x="134" y="358" style="fill:black;" font-family="Arial" font-size="16px">votato</text>
   <rect width="138" height="20" x="485" y="54" style="fill:#007;stroke:black;"/>
   <text width="138" height="20" x="490" y="68" style="fill:#fff;" font-family="Arial" font-size="16px"> utente</text>
   <rect width="138" height="20" x="485" y="74" style="fill:none;stroke:black;"/>
   <text width="138" height="20" x="490" y="88" style="fill:black;" font-family="Arial" font-size="16px">username</text>
   <rect width="138" height="20" x="485" y="94" style="fill:none;stroke:black;"/>
   <text width="138" height="20" x="490" y="108" style="fill:black;" font-family="Arial" font-size="16px">password</text>
   <rect width="138" height="20" x="485" y="114" style="fill:none;stroke:black;"/>
   <text width="138" height="20" x="490" y="128" style="fill:black;" font-family="Arial" font-size="16px">nome</text>
   <rect width="138" height="20" x="485" y="134" style="fill:none;stroke:black;"/>
   <text width="138" height="20" x="490" y="148" style="fill:black;" font-family="Arial" font-size="16px">cognome</text>
   <rect width="138" height="20" x="485" y="154" style="fill:none;stroke:black;"/>
   <text width="138" height="20" x="490" y="168" style="fill:black;" font-family="Arial" font-size="16px">data_nascita</text>
   <rect width="138" height="20" x="485" y="174" style="fill:none;stroke:black;"/>
   <text width="138" height="20" x="490" y="188" style="fill:black;" font-family="Arial" font-size="16px">citta_nascita</text>
   <rect width="138" height="20" x="485" y="194" style="fill:none;stroke:black;"/>
   <text width="138" height="20" x="490" y="208" style="fill:black;" font-family="Arial" font-size="16px">citta_residenza</text>
   <rect width="138" height="20" x="485" y="214" style="fill:none;stroke:black;"/>
   <text width="138" height="20" x="490" y="228" style="fill:black;" font-family="Arial" font-size="16px">sesso</text>
   <rect width="138" height="20" x="485" y="234" style="fill:none;stroke:black;"/>
   <text width="138" height="20" x="490" y="248" style="fill:black;" font-family="Arial" font-size="16px">cod_fiscale</text>
   <rect width="138" height="20" x="485" y="254" style="fill:none;stroke:black;"/>
   <text width="138" height="20" x="490" y="268" style="fill:black;" font-family="Arial" font-size="16px">email</text>
   <rect width="138" height="20" x="485" y="274" style="fill:none;stroke:black;"/>
   <text width="138" height="20" x="490" y="288" style="fill:black;" font-family="Arial" font-size="16px">num_telefono</text>
   <rect width="138" height="20" x="485" y="294" style="fill:none;stroke:black;"/>
   <text width="138" height="20" x="490" y="308" style="fill:black;" font-family="Arial" font-size="16px">stato_attivazione</text>
   <rect width="138" height="20" x="485" y="314" style="fill:none;stroke:black;"/>
   <text width="138" height="20" x="490" y="328" style="fill:black;" font-family="Arial" font-size="16px">codice_attivazione</text>
   <rect width="138" height="20" x="485" y="334" style="fill:none;stroke:black;"/>
   <text width="138" height="20" x="490" y="348" style="fill:black;" font-family="Arial" font-size="16px">amministratore</text>
   <rect width="138" height="20" x="485" y="354" style="fill:none;stroke:black;"/>
   <text width="138" height="20" x="490" y="368" style="fill:black;" font-family="Arial" font-size="16px">immagine_profilo</text>
   <rect width="119" height="20" x="822" y="422" style="fill:#007;stroke:black;"/>
   <text width="119" height="20" x="827" y="436" style="fill:#fff;" font-family="Arial" font-size="16px"> vino</text>
   <rect width="119" height="20" x="822" y="442" style="fill:none;stroke:black;"/>
   <text width="119" height="20" x="827" y="456" style="fill:black;" font-family="Arial" font-size="16px">nome_vino</text>
   <rect width="119" height="20" x="822" y="462" style="fill:none;stroke:black;"/>
   <text width="119" height="20" x="827" y="476" style="fill:black;" font-family="Arial" font-size="16px">produttore</text>
   <rect width="119" height="20" x="822" y="482" style="fill:none;stroke:black;"/>
   <text width="119" height="20" x="827" y="496" style="fill:black;" font-family="Arial" font-size="16px">denominazione</text>
   <rect width="119" height="20" x="822" y="502" style="fill:none;stroke:black;"/>
   <text width="119" height="20" x="827" y="516" style="fill:black;" font-family="Arial" font-size="16px">vitigno</text>
   <rect width="119" height="20" x="822" y="522" style="fill:none;stroke:black;"/>
   <text width="119" height="20" x="827" y="536" style="fill:black;" font-family="Arial" font-size="16px">anno</text>
   <rect width="119" height="20" x="822" y="542" style="fill:none;stroke:black;"/>
   <text width="119" height="20" x="827" y="556" style="fill:black;" font-family="Arial" font-size="16px">descrizione</text>
   <rect width="119" height="20" x="822" y="562" style="fill:none;stroke:black;"/>
   <text width="119" height="20" x="827" y="576" style="fill:black;" font-family="Arial" font-size="16px">immagine_vino</text>
   <rect width="119" height="20" x="822" y="582" style="fill:none;stroke:black;"/>
   <text width="119" height="20" x="827" y="596" style="fill:black;" font-family="Arial" font-size="16px">attuale</text>
</svg>
